# xmcd
#
# Track frame offsets:
#	150
#	19527
#	34619
#	51719
#	69468
#	86919
#	103923
#	124174
#	142642
#	159670
#	176815
#
# Disc length: 2606 seconds
#
# Revision: 2
# Processed by: cddbd v1.5.2PL0 Copyright (c) Steve Scherf et al.
# Submitted via: audiograbber 1.83.01
#
DISCID=970a2c0b
DTITLE=Gloriana - A Thousand Miles Left Behind
DYEAR=2012
DGENRE=Country
TTITLE0=Gold Rush
TTITLE1=Sunset Lovin'
TTITLE2=Wanna Take You Home
TTITLE3=(Kissed You) Good Night
TTITLE4=Carolina Rose
TTITLE5=Go On... Miss Me
TTITLE6=Can't Shake You
TTITLE7=Soldier Song
TTITLE8=Turn My World Around
TTITLE9=Doing It Our Way
TTITLE10=Where My Heart Belongs
EXTD=
EXTT0=
EXTT1=
EXTT2=
EXTT3=
EXTT4=
EXTT5=
EXTT6=
EXTT7=
EXTT8=
EXTT9=
EXTT10=
PLAYORDER=
